<mxfile host="app.diagrams.net" modified="2022-09-22T03:50:10.391Z" agent="5.0 (Windows NT 10.0; Win64; x64) AppleWebKit/537.36 (KHTML, like Gecko) Chrome/105.0.0.0 Safari/537.36 Edg/105.0.1343.42" etag="hsgpyqg6ET7qoYjp0Gss" version="20.3.3" type="github">
  <diagram name="Page-1" id="9f46799a-70d6-7492-0946-bef42562c5a5">
    <mxGraphModel dx="1037" dy="579" grid="1" gridSize="10" guides="1" tooltips="1" connect="1" arrows="1" fold="1" page="1" pageScale="1" pageWidth="1100" pageHeight="850" background="none" math="0" shadow="0">
      <root>
        <mxCell id="0" />
        <mxCell id="1" parent="0" />
        <mxCell id="8_xuqbvsqTb41eYr0lA3-2" value=" StudentLogin" style="swimlane;fontStyle=1;align=center;verticalAlign=top;childLayout=stackLayout;horizontal=1;startSize=26;horizontalStack=0;resizeParent=1;resizeParentMax=0;resizeLast=0;collapsible=1;marginBottom=0;" vertex="1" parent="1">
          <mxGeometry x="470" y="20" width="160" height="78" as="geometry" />
        </mxCell>
        <mxCell id="8_xuqbvsqTb41eYr0lA3-3" value="#UserName:String&#xa;#PassWord:String" style="text;strokeColor=none;fillColor=none;align=left;verticalAlign=top;spacingLeft=4;spacingRight=4;overflow=hidden;rotatable=0;points=[[0,0.5],[1,0.5]];portConstraint=eastwest;" vertex="1" parent="8_xuqbvsqTb41eYr0lA3-2">
          <mxGeometry y="26" width="160" height="44" as="geometry" />
        </mxCell>
        <mxCell id="8_xuqbvsqTb41eYr0lA3-4" value="" style="line;strokeWidth=1;fillColor=none;align=left;verticalAlign=middle;spacingTop=-1;spacingLeft=3;spacingRight=3;rotatable=0;labelPosition=right;points=[];portConstraint=eastwest;strokeColor=inherit;" vertex="1" parent="8_xuqbvsqTb41eYr0lA3-2">
          <mxGeometry y="70" width="160" height="8" as="geometry" />
        </mxCell>
        <mxCell id="8_xuqbvsqTb41eYr0lA3-8" value="Student" style="swimlane;fontStyle=1;align=center;verticalAlign=top;childLayout=stackLayout;horizontal=1;startSize=26;horizontalStack=0;resizeParent=1;resizeParentMax=0;resizeLast=0;collapsible=1;marginBottom=0;" vertex="1" parent="1">
          <mxGeometry x="470" y="300" width="160" height="170" as="geometry" />
        </mxCell>
        <mxCell id="8_xuqbvsqTb41eYr0lA3-9" value="+StuNum:int&#xa;+StuName:String&#xa;+StuID:long&#xa;+StuClass:String" style="text;strokeColor=none;fillColor=none;align=left;verticalAlign=top;spacingLeft=4;spacingRight=4;overflow=hidden;rotatable=0;points=[[0,0.5],[1,0.5]];portConstraint=eastwest;" vertex="1" parent="8_xuqbvsqTb41eYr0lA3-8">
          <mxGeometry y="26" width="160" height="74" as="geometry" />
        </mxCell>
        <mxCell id="8_xuqbvsqTb41eYr0lA3-10" value="" style="line;strokeWidth=1;fillColor=none;align=left;verticalAlign=middle;spacingTop=-1;spacingLeft=3;spacingRight=3;rotatable=0;labelPosition=right;points=[];portConstraint=eastwest;strokeColor=inherit;" vertex="1" parent="8_xuqbvsqTb41eYr0lA3-8">
          <mxGeometry y="100" width="160" height="8" as="geometry" />
        </mxCell>
        <mxCell id="8_xuqbvsqTb41eYr0lA3-11" value="+Grade()&#xa;+Curricula()&#xa;+rebuild（）" style="text;strokeColor=none;fillColor=none;align=left;verticalAlign=top;spacingLeft=4;spacingRight=4;overflow=hidden;rotatable=0;points=[[0,0.5],[1,0.5]];portConstraint=eastwest;" vertex="1" parent="8_xuqbvsqTb41eYr0lA3-8">
          <mxGeometry y="108" width="160" height="62" as="geometry" />
        </mxCell>
        <mxCell id="8_xuqbvsqTb41eYr0lA3-12" style="edgeStyle=orthogonalEdgeStyle;rounded=0;orthogonalLoop=1;jettySize=auto;html=1;entryX=0.5;entryY=0;entryDx=0;entryDy=0;" edge="1" parent="1" source="8_xuqbvsqTb41eYr0lA3-5" target="8_xuqbvsqTb41eYr0lA3-8">
          <mxGeometry relative="1" as="geometry" />
        </mxCell>
        <mxCell id="8_xuqbvsqTb41eYr0lA3-5" value="+getUserName():String&#xa;+setUserName():String&#xa;+getPassWord():String&#xa;+setPassWord():String" style="text;strokeColor=none;fillColor=none;align=left;verticalAlign=top;spacingLeft=4;spacingRight=4;overflow=hidden;rotatable=0;points=[[0,0.5],[1,0.5]];portConstraint=eastwest;" vertex="1" parent="1">
          <mxGeometry x="470" y="100" width="160" height="62" as="geometry" />
        </mxCell>
        <mxCell id="8_xuqbvsqTb41eYr0lA3-13" value="Grade" style="swimlane;fontStyle=1;align=center;verticalAlign=top;childLayout=stackLayout;horizontal=1;startSize=26;horizontalStack=0;resizeParent=1;resizeParentMax=0;resizeLast=0;collapsible=1;marginBottom=0;" vertex="1" parent="1">
          <mxGeometry x="150" y="420" width="160" height="114" as="geometry" />
        </mxCell>
        <mxCell id="8_xuqbvsqTb41eYr0lA3-14" value="+Year:int&#xa;+Major:String&#xa;+UnPass:grade" style="text;strokeColor=none;fillColor=none;align=left;verticalAlign=top;spacingLeft=4;spacingRight=4;overflow=hidden;rotatable=0;points=[[0,0.5],[1,0.5]];portConstraint=eastwest;" vertex="1" parent="8_xuqbvsqTb41eYr0lA3-13">
          <mxGeometry y="26" width="160" height="54" as="geometry" />
        </mxCell>
        <mxCell id="8_xuqbvsqTb41eYr0lA3-15" value="" style="line;strokeWidth=1;fillColor=none;align=left;verticalAlign=middle;spacingTop=-1;spacingLeft=3;spacingRight=3;rotatable=0;labelPosition=right;points=[];portConstraint=eastwest;strokeColor=inherit;" vertex="1" parent="8_xuqbvsqTb41eYr0lA3-13">
          <mxGeometry y="80" width="160" height="8" as="geometry" />
        </mxCell>
        <mxCell id="8_xuqbvsqTb41eYr0lA3-16" value="+ Sort()" style="text;strokeColor=none;fillColor=none;align=left;verticalAlign=top;spacingLeft=4;spacingRight=4;overflow=hidden;rotatable=0;points=[[0,0.5],[1,0.5]];portConstraint=eastwest;" vertex="1" parent="8_xuqbvsqTb41eYr0lA3-13">
          <mxGeometry y="88" width="160" height="26" as="geometry" />
        </mxCell>
        <mxCell id="8_xuqbvsqTb41eYr0lA3-18" style="edgeStyle=orthogonalEdgeStyle;rounded=0;orthogonalLoop=1;jettySize=auto;html=1;entryX=1.019;entryY=0.161;entryDx=0;entryDy=0;entryPerimeter=0;dashed=1;" edge="1" parent="1" source="8_xuqbvsqTb41eYr0lA3-11" target="8_xuqbvsqTb41eYr0lA3-13">
          <mxGeometry relative="1" as="geometry" />
        </mxCell>
        <mxCell id="8_xuqbvsqTb41eYr0lA3-19" value="Curricula&#xa;" style="swimlane;fontStyle=1;align=center;verticalAlign=top;childLayout=stackLayout;horizontal=1;startSize=26;horizontalStack=0;resizeParent=1;resizeParentMax=0;resizeLast=0;collapsible=1;marginBottom=0;" vertex="1" parent="1">
          <mxGeometry x="800" y="420" width="160" height="124" as="geometry" />
        </mxCell>
        <mxCell id="8_xuqbvsqTb41eYr0lA3-20" value="+ teacher:String&#xa;+Class:String&#xa;+Time:time" style="text;strokeColor=none;fillColor=none;align=left;verticalAlign=top;spacingLeft=4;spacingRight=4;overflow=hidden;rotatable=0;points=[[0,0.5],[1,0.5]];portConstraint=eastwest;" vertex="1" parent="8_xuqbvsqTb41eYr0lA3-19">
          <mxGeometry y="26" width="160" height="64" as="geometry" />
        </mxCell>
        <mxCell id="8_xuqbvsqTb41eYr0lA3-21" value="" style="line;strokeWidth=1;fillColor=none;align=left;verticalAlign=middle;spacingTop=-1;spacingLeft=3;spacingRight=3;rotatable=0;labelPosition=right;points=[];portConstraint=eastwest;strokeColor=inherit;" vertex="1" parent="8_xuqbvsqTb41eYr0lA3-19">
          <mxGeometry y="90" width="160" height="8" as="geometry" />
        </mxCell>
        <mxCell id="8_xuqbvsqTb41eYr0lA3-22" value="+ method(type): type" style="text;strokeColor=none;fillColor=none;align=left;verticalAlign=top;spacingLeft=4;spacingRight=4;overflow=hidden;rotatable=0;points=[[0,0.5],[1,0.5]];portConstraint=eastwest;" vertex="1" parent="8_xuqbvsqTb41eYr0lA3-19">
          <mxGeometry y="98" width="160" height="26" as="geometry" />
        </mxCell>
        <mxCell id="8_xuqbvsqTb41eYr0lA3-23" style="edgeStyle=orthogonalEdgeStyle;rounded=0;orthogonalLoop=1;jettySize=auto;html=1;entryX=0;entryY=0.153;entryDx=0;entryDy=0;entryPerimeter=0;dashed=1;" edge="1" parent="1" source="8_xuqbvsqTb41eYr0lA3-11" target="8_xuqbvsqTb41eYr0lA3-19">
          <mxGeometry relative="1" as="geometry" />
        </mxCell>
        <mxCell id="8_xuqbvsqTb41eYr0lA3-24" value="rebuild" style="swimlane;fontStyle=1;align=center;verticalAlign=top;childLayout=stackLayout;horizontal=1;startSize=26;horizontalStack=0;resizeParent=1;resizeParentMax=0;resizeLast=0;collapsible=1;marginBottom=0;" vertex="1" parent="1">
          <mxGeometry x="390" y="620" width="160" height="124" as="geometry" />
        </mxCell>
        <mxCell id="8_xuqbvsqTb41eYr0lA3-25" value="+ teacher:String&#xa;+Class:String&#xa;+Time:time" style="text;strokeColor=none;fillColor=none;align=left;verticalAlign=top;spacingLeft=4;spacingRight=4;overflow=hidden;rotatable=0;points=[[0,0.5],[1,0.5]];portConstraint=eastwest;" vertex="1" parent="8_xuqbvsqTb41eYr0lA3-24">
          <mxGeometry y="26" width="160" height="64" as="geometry" />
        </mxCell>
        <mxCell id="8_xuqbvsqTb41eYr0lA3-26" value="" style="line;strokeWidth=1;fillColor=none;align=left;verticalAlign=middle;spacingTop=-1;spacingLeft=3;spacingRight=3;rotatable=0;labelPosition=right;points=[];portConstraint=eastwest;strokeColor=inherit;" vertex="1" parent="8_xuqbvsqTb41eYr0lA3-24">
          <mxGeometry y="90" width="160" height="8" as="geometry" />
        </mxCell>
        <mxCell id="8_xuqbvsqTb41eYr0lA3-27" value="+ method(type): type" style="text;strokeColor=none;fillColor=none;align=left;verticalAlign=top;spacingLeft=4;spacingRight=4;overflow=hidden;rotatable=0;points=[[0,0.5],[1,0.5]];portConstraint=eastwest;" vertex="1" parent="8_xuqbvsqTb41eYr0lA3-24">
          <mxGeometry y="98" width="160" height="26" as="geometry" />
        </mxCell>
        <mxCell id="8_xuqbvsqTb41eYr0lA3-28" style="edgeStyle=orthogonalEdgeStyle;rounded=0;orthogonalLoop=1;jettySize=auto;html=1;entryX=0.106;entryY=-0.037;entryDx=0;entryDy=0;entryPerimeter=0;dashed=1;" edge="1" parent="1" source="8_xuqbvsqTb41eYr0lA3-11" target="8_xuqbvsqTb41eYr0lA3-24">
          <mxGeometry relative="1" as="geometry" />
        </mxCell>
      </root>
    </mxGraphModel>
  </diagram>
</mxfile>
